<svg width="544" height="121" viewBox="0 0 544 121" fill="none" xmlns="http://www.w3.org/2000/svg">
<g filter="url(#filter0_b_1_372)">
<rect width="544" height="121" rx="20" fill="#8A8A8A" fill-opacity="0.3"/>
<rect x="1" y="1" width="542" height="119" rx="19" stroke="url(#paint0_linear_1_372)" stroke-opacity="0.6" stroke-width="2"/>
<path d="M438 76.6668C447.205 76.6668 454.667 69.2049 454.667 60.0002C454.667 50.7954 447.205 43.3335 438 43.3335C428.795 43.3335 421.333 50.7954 421.333 60.0002C421.333 69.2049 428.795 76.6668 438 76.6668Z" fill="#122038"/>
<path d="M435.778 66.6668L442.444 60.0002L435.778 53.3335" stroke="#32B477" stroke-width="3.33333" stroke-linecap="round" stroke-linejoin="round"/>
<path d="M88.632 68V51.2H94.368C96.336 51.2 97.952 51.552 99.216 52.256C100.496 52.944 101.44 53.92 102.048 55.184C102.672 56.432 102.984 57.904 102.984 59.6C102.984 61.296 102.672 62.776 102.048 64.04C101.44 65.288 100.496 66.264 99.216 66.968C97.952 67.656 96.336 68 94.368 68H88.632ZM91.704 65.36H94.224C95.632 65.36 96.744 65.136 97.56 64.688C98.376 64.224 98.96 63.568 99.312 62.72C99.664 61.856 99.84 60.816 99.84 59.6C99.84 58.4 99.664 57.368 99.312 56.504C98.96 55.64 98.376 54.976 97.56 54.512C96.744 54.048 95.632 53.816 94.224 53.816H91.704V65.36ZM109.678 54.248C109.118 54.248 108.654 54.08 108.286 53.744C107.934 53.408 107.758 52.984 107.758 52.472C107.758 51.96 107.934 51.544 108.286 51.224C108.654 50.888 109.118 50.72 109.678 50.72C110.238 50.72 110.694 50.888 111.046 51.224C111.414 51.544 111.599 51.96 111.599 52.472C111.599 52.984 111.414 53.408 111.046 53.744C110.694 54.08 110.238 54.248 109.678 54.248ZM108.142 68V56.096H111.214V68H108.142ZM121.741 68.288C120.685 68.288 119.757 68.12 118.957 67.784C118.157 67.432 117.517 66.952 117.037 66.344C116.557 65.736 116.269 65.032 116.173 64.232H119.269C119.365 64.696 119.621 65.096 120.037 65.432C120.469 65.752 121.021 65.912 121.693 65.912C122.365 65.912 122.853 65.776 123.157 65.504C123.477 65.232 123.637 64.92 123.637 64.568C123.637 64.056 123.413 63.712 122.965 63.536C122.517 63.344 121.893 63.16 121.093 62.984C120.581 62.872 120.061 62.736 119.533 62.576C119.005 62.416 118.517 62.216 118.069 61.976C117.637 61.72 117.285 61.4 117.013 61.016C116.741 60.616 116.605 60.128 116.605 59.552C116.605 58.496 117.021 57.608 117.853 56.888C118.701 56.168 119.885 55.808 121.405 55.808C122.813 55.808 123.933 56.136 124.765 56.792C125.613 57.448 126.117 58.352 126.277 59.504H123.373C123.197 58.624 122.533 58.184 121.381 58.184C120.805 58.184 120.357 58.296 120.037 58.52C119.733 58.744 119.581 59.024 119.581 59.36C119.581 59.712 119.813 59.992 120.277 60.2C120.741 60.408 121.357 60.6 122.125 60.776C122.957 60.968 123.717 61.184 124.405 61.424C125.109 61.648 125.669 61.992 126.085 62.456C126.501 62.904 126.709 63.552 126.709 64.4C126.725 65.136 126.533 65.8 126.133 66.392C125.733 66.984 125.157 67.448 124.405 67.784C123.653 68.12 122.765 68.288 121.741 68.288ZM137.662 68.288C136.446 68.288 135.374 68.024 134.446 67.496C133.518 66.968 132.782 66.232 132.238 65.288C131.71 64.344 131.446 63.264 131.446 62.048C131.446 60.832 131.71 59.752 132.238 58.808C132.782 57.864 133.518 57.128 134.446 56.6C135.374 56.072 136.446 55.808 137.662 55.808C139.182 55.808 140.462 56.208 141.502 57.008C142.542 57.792 143.206 58.88 143.494 60.272H140.254C140.094 59.696 139.774 59.248 139.294 58.928C138.83 58.592 138.278 58.424 137.638 58.424C136.79 58.424 136.07 58.744 135.478 59.384C134.886 60.024 134.59 60.912 134.59 62.048C134.59 63.184 134.886 64.072 135.478 64.712C136.07 65.352 136.79 65.672 137.638 65.672C138.278 65.672 138.83 65.512 139.294 65.192C139.774 64.872 140.094 64.416 140.254 63.824H143.494C143.206 65.168 142.542 66.248 141.502 67.064C140.462 67.88 139.182 68.288 137.662 68.288ZM154.333 68.288C153.181 68.288 152.141 68.024 151.213 67.496C150.301 66.968 149.573 66.24 149.029 65.312C148.501 64.368 148.237 63.28 148.237 62.048C148.237 60.816 148.509 59.736 149.053 58.808C149.597 57.864 150.325 57.128 151.237 56.6C152.165 56.072 153.205 55.808 154.357 55.808C155.493 55.808 156.517 56.072 157.429 56.6C158.357 57.128 159.085 57.864 159.613 58.808C160.157 59.736 160.429 60.816 160.429 62.048C160.429 63.28 160.157 64.368 159.613 65.312C159.085 66.24 158.357 66.968 157.429 67.496C156.501 68.024 155.469 68.288 154.333 68.288ZM154.333 65.624C155.133 65.624 155.829 65.328 156.421 64.736C157.013 64.128 157.309 63.232 157.309 62.048C157.309 60.864 157.013 59.976 156.421 59.384C155.829 58.776 155.141 58.472 154.357 58.472C153.541 58.472 152.837 58.776 152.245 59.384C151.669 59.976 151.381 60.864 151.381 62.048C151.381 63.232 151.669 64.128 152.245 64.736C152.837 65.328 153.533 65.624 154.333 65.624ZM168.206 68L163.838 56.096H167.054L170.078 65.096L173.102 56.096H176.318L171.926 68H168.206ZM185.853 68.288C184.653 68.288 183.589 68.032 182.661 67.52C181.733 67.008 181.005 66.288 180.477 65.36C179.949 64.432 179.685 63.36 179.685 62.144C179.685 60.912 179.941 59.816 180.453 58.856C180.981 57.896 181.701 57.152 182.613 56.624C183.541 56.08 184.629 55.808 185.877 55.808C187.045 55.808 188.077 56.064 188.973 56.576C189.869 57.088 190.565 57.792 191.061 58.688C191.573 59.568 191.829 60.552 191.829 61.64C191.829 61.816 191.821 62 191.805 62.192C191.805 62.384 191.797 62.584 191.781 62.792H182.733C182.797 63.72 183.117 64.448 183.693 64.976C184.285 65.504 184.997 65.768 185.829 65.768C186.453 65.768 186.973 65.632 187.389 65.36C187.821 65.072 188.141 64.704 188.349 64.256H191.469C191.245 65.008 190.869 65.696 190.341 66.32C189.829 66.928 189.189 67.408 188.421 67.76C187.669 68.112 186.813 68.288 185.853 68.288ZM185.877 58.304C185.125 58.304 184.461 58.52 183.885 58.952C183.309 59.368 182.941 60.008 182.781 60.872H188.709C188.661 60.088 188.373 59.464 187.845 59C187.317 58.536 186.661 58.304 185.877 58.304ZM196.813 68V56.096H199.549L199.837 58.328C200.269 57.56 200.853 56.952 201.589 56.504C202.341 56.04 203.221 55.808 204.229 55.808V59.048H203.365C202.693 59.048 202.093 59.152 201.565 59.36C201.037 59.568 200.621 59.928 200.317 60.44C200.029 60.952 199.885 61.664 199.885 62.576V68H196.813ZM216.92 68V51.2H220.568L225.92 61.856L231.2 51.2H234.848V68H231.776V56.408L227.096 65.6H224.672L219.992 56.408V68H216.92ZM246.147 68.288C244.995 68.288 243.955 68.024 243.027 67.496C242.115 66.968 241.387 66.24 240.843 65.312C240.315 64.368 240.051 63.28 240.051 62.048C240.051 60.816 240.323 59.736 240.867 58.808C241.411 57.864 242.139 57.128 243.051 56.6C243.979 56.072 245.019 55.808 246.171 55.808C247.307 55.808 248.331 56.072 249.243 56.6C250.171 57.128 250.899 57.864 251.427 58.808C251.971 59.736 252.243 60.816 252.243 62.048C252.243 63.28 251.971 64.368 251.427 65.312C250.899 66.24 250.171 66.968 249.243 67.496C248.315 68.024 247.283 68.288 246.147 68.288ZM246.147 65.624C246.947 65.624 247.643 65.328 248.235 64.736C248.827 64.128 249.123 63.232 249.123 62.048C249.123 60.864 248.827 59.976 248.235 59.384C247.643 58.776 246.955 58.472 246.171 58.472C245.355 58.472 244.651 58.776 244.059 59.384C243.483 59.976 243.195 60.864 243.195 62.048C243.195 63.232 243.483 64.128 244.059 64.736C244.651 65.328 245.347 65.624 246.147 65.624ZM257.39 68V56.096H260.126L260.414 58.328C260.846 57.56 261.43 56.952 262.166 56.504C262.918 56.04 263.798 55.808 264.806 55.808V59.048H263.942C263.27 59.048 262.67 59.152 262.142 59.36C261.614 59.568 261.198 59.928 260.894 60.44C260.606 60.952 260.462 61.664 260.462 62.576V68H257.39ZM274.878 68.288C273.678 68.288 272.614 68.032 271.686 67.52C270.758 67.008 270.03 66.288 269.502 65.36C268.974 64.432 268.71 63.36 268.71 62.144C268.71 60.912 268.966 59.816 269.478 58.856C270.006 57.896 270.726 57.152 271.638 56.624C272.566 56.08 273.654 55.808 274.902 55.808C276.07 55.808 277.102 56.064 277.998 56.576C278.894 57.088 279.59 57.792 280.086 58.688C280.598 59.568 280.854 60.552 280.854 61.64C280.854 61.816 280.846 62 280.83 62.192C280.83 62.384 280.822 62.584 280.806 62.792H271.758C271.822 63.72 272.142 64.448 272.718 64.976C273.31 65.504 274.022 65.768 274.854 65.768C275.478 65.768 275.998 65.632 276.414 65.36C276.846 65.072 277.166 64.704 277.374 64.256H280.494C280.27 65.008 279.894 65.696 279.366 66.32C278.854 66.928 278.214 67.408 277.446 67.76C276.694 68.112 275.838 68.288 274.878 68.288ZM274.902 58.304C274.15 58.304 273.486 58.52 272.91 58.952C272.334 59.368 271.966 60.008 271.806 60.872H277.734C277.686 60.088 277.398 59.464 276.87 59C276.342 58.536 275.686 58.304 274.902 58.304Z" fill="white"/>
</g>
<defs>
<filter id="filter0_b_1_372" x="-80" y="-80" width="704" height="281" filterUnits="userSpaceOnUse" color-interpolation-filters="sRGB">
<feFlood flood-opacity="0" result="BackgroundImageFix"/>
<feGaussianBlur in="BackgroundImageFix" stdDeviation="40"/>
<feComposite in2="SourceAlpha" operator="in" result="effect1_backgroundBlur_1_372"/>
<feBlend mode="normal" in="SourceGraphic" in2="effect1_backgroundBlur_1_372" result="shape"/>
</filter>
<linearGradient id="paint0_linear_1_372" x1="193.538" y1="-82.5" x2="303.523" y2="102.232" gradientUnits="userSpaceOnUse">
<stop stop-color="white"/>
<stop offset="1" stop-color="white" stop-opacity="0"/>
</linearGradient>
</defs>
</svg>
